<svg width="122" height="68" viewBox="0 0 122 68" fill="none" xmlns="http://www.w3.org/2000/svg">
<g id="page-not-found-1--Interface-page-not-found-1">
<g id="color">
<g id="group">
<path id="vector" d="M112.152 41.2576C111.382 41.2644 110.633 41.515 110.014 41.9734C109.395 42.4318 108.937 43.0745 108.705 43.8093C108.532 44.2852 108.455 44.7907 108.478 45.2967C108.501 45.8026 108.624 46.299 108.84 46.7572C109.056 47.2153 109.36 47.6262 109.736 47.966C110.111 48.3059 110.55 48.568 111.028 48.7373C111.771 48.9672 112.562 48.9994 113.322 48.8307C117.63 47.8003 117.037 41.104 112.152 41.2576ZM114.486 45.9584C114.371 46.2532 114.196 46.521 113.972 46.7452C113.749 46.9693 113.482 47.1451 113.187 47.2614C112.893 47.3777 112.578 47.4321 112.261 47.4212C111.945 47.4104 111.634 47.3344 111.348 47.1982C111.063 47.0619 110.808 46.8683 110.6 46.6293C110.393 46.3903 110.237 46.1111 110.142 45.8091C110.047 45.5071 110.015 45.1888 110.049 44.874C110.082 44.5593 110.18 44.2548 110.336 43.9795C110.483 43.6898 110.695 43.4377 110.955 43.2429C111.215 43.0481 111.516 42.9158 111.835 42.8563C112.245 42.7628 112.672 42.7834 113.071 42.9158C113.47 43.0474 113.826 43.2859 114.099 43.6055C114.372 43.9251 114.552 44.3134 114.62 44.7283C114.689 45.1429 114.642 45.5683 114.486 45.9584Z" fill="#C8CFF7"/>
<path id="vector_2" d="M113.841 43.344C113.523 43.074 113.138 42.8956 112.727 42.8279C112.316 42.7603 111.894 42.8059 111.506 42.9598C111.119 43.1138 110.781 43.3704 110.528 43.702C110.276 44.0336 110.118 44.4277 110.072 44.842C110.027 45.2564 110.095 45.6753 110.269 46.0539C110.444 46.4325 110.718 46.7565 111.063 46.991C111.407 47.2255 111.809 47.3618 112.225 47.3852C112.642 47.4086 113.056 47.3183 113.425 47.1238C113.758 46.9493 114.043 46.6959 114.254 46.3857C114.466 46.0755 114.599 45.718 114.64 45.3446C114.681 44.9712 114.63 44.5934 114.491 44.2445C114.351 43.8956 114.128 43.5864 113.841 43.344Z" fill="white"/>
<path id="vector_3" d="M103.848 35.639V40.6431C104.576 39.1694 105.696 37.9242 107.084 37.0438C108.472 36.1634 110.076 35.6816 111.72 35.6511C111.851 35.646 111.964 35.646 112.084 35.6441C110.766 35.6326 108.403 35.639 103.848 35.639Z" fill="white"/>
<path id="vector_4" d="M121.545 42.5318C121.118 40.7869 120.181 39.2089 118.852 37.9997C117.524 36.7905 115.865 36.0051 114.088 35.744C109.091 35.0726 105.54 37.28 103.848 40.6432C103.848 45.3363 103.733 46.3155 104.249 47.9245C104.642 49.1377 105.313 50.2423 106.209 51.1496C107.105 52.0569 108.201 52.7418 109.409 53.1494C110.259 53.4329 111.149 53.5827 112.046 53.5923C112.667 53.7446 112.686 54.4825 112.015 54.5465C112.025 54.5491 112.035 54.551 112.046 54.5523C114.103 54.6739 116.144 54.1216 117.859 52.9798C119.537 51.827 120.781 50.1446 121.391 48.2016C121.892 46.3507 121.945 44.407 121.545 42.5318ZM112.344 48.9382C111.723 48.9536 111.108 48.8162 110.552 48.538C109.997 48.2597 109.518 47.8493 109.159 47.3427C108.799 46.8359 108.57 46.2486 108.492 45.6324C108.413 45.0162 108.487 44.3901 108.707 43.8093C109.724 40.7437 113.728 40.4813 115.427 42.7161C115.866 43.2902 116.135 43.9758 116.205 44.6951C116.274 45.4145 116.141 46.139 115.82 46.7865C115.499 47.4341 115.003 47.9788 114.389 48.3591C113.774 48.7394 113.065 48.94 112.343 48.9382H112.344Z" fill="#C8CFF7"/>
<path id="vector_5" d="M112.51 54.0717C112.511 53.9503 112.464 53.8334 112.381 53.745C112.298 53.6566 112.184 53.6034 112.062 53.5962C110.732 53.5738 109.424 53.2506 108.237 52.6509C103.679 50.272 103.853 46.0839 103.837 43.3818C103.819 40.3572 103.847 34.658 103.849 23.3101C103.898 20.9467 103.022 18.6575 101.407 16.9316C99.7913 15.2056 97.5651 14.1797 95.2036 14.073C95.2735 14.0892 95.3388 14.1209 95.3947 14.1658C95.4507 14.2106 95.4958 14.2675 95.5268 14.3322C95.5578 14.3967 95.5741 14.4674 95.5744 14.539C95.5748 14.6106 95.5592 14.6814 95.5287 14.7463C95.2939 15.2621 94.7479 14.8103 92.9355 15.3152C91.4137 15.7429 90.0501 16.6061 89.0126 17.7987C87.9751 18.9913 87.309 20.4612 87.0961 22.0276C86.8926 23.5732 87.1601 28.05 86.9329 29.8996C86.73 31.4628 86.1238 32.9464 85.174 34.2045C84.2241 35.4626 82.9632 36.4519 81.5153 37.0752C79.2266 38.0679 77.9415 37.8375 72.3172 37.8375C72.3172 38.7092 72.3063 45.5776 72.3383 46.0544C72.4629 48.0062 73.2139 49.8656 74.4799 51.3563C75.7459 52.847 77.4591 53.8893 79.3649 54.3284C80.8145 54.6484 79.587 54.5511 111.895 54.5511C112.244 54.5523 112.515 54.4282 112.51 54.0717Z" fill="#F3B82E"/>
<path id="vector_6" d="M95.084 14.0608C94.4402 14.0473 90.8024 14.0569 69.9192 14.0569V28.5049C69.8886 29.9873 70.2605 31.4502 70.9953 32.738C71.7301 34.0258 72.8003 35.0903 74.092 35.8182C75.355 36.4684 76.7454 36.8333 78.165 36.887C78.2854 36.899 78.3965 36.9569 78.4754 37.0486C78.5543 37.1404 78.5949 37.259 78.5887 37.3798C78.5828 37.5004 78.5311 37.6142 78.4442 37.6979C78.3572 37.7816 78.2415 37.829 78.1208 37.8303C78.1285 37.8303 78.1343 37.8342 78.1419 37.8342C80.2205 37.7721 82.2157 37.003 83.7982 35.654C85.3806 34.3049 86.4557 32.4566 86.8459 30.414C87.2434 28.3398 86.8709 23.9065 87.0776 22.135C87.2966 20.3538 88.1002 18.6956 89.3626 17.4201C90.625 16.1446 92.2748 15.324 94.0536 15.0867C95.0411 14.9587 95.3554 15.134 95.5256 14.7462C95.5608 14.6724 95.5765 14.591 95.5713 14.5094C95.566 14.4279 95.5401 14.3491 95.4958 14.2804C95.4516 14.2117 95.3905 14.1555 95.3185 14.1171C95.2464 14.0786 95.1657 14.0592 95.084 14.0608Z" fill="white"/>
<path id="vector_7" d="M78.117 36.88C76.7776 36.8577 75.4613 36.5275 74.2699 35.9149C72.9299 35.2038 71.8137 34.1345 71.0456 32.8263C70.277 31.5185 69.8866 30.0229 69.9179 28.5063C69.9179 8.76101 69.9454 9.72549 69.8475 8.95301C69.58 6.7585 68.5204 4.73721 66.8677 3.26892C65.2149 1.80062 63.0829 0.986403 60.8722 0.979248C61.5762 1.16229 61.4936 1.92837 60.6917 1.96165C60.2642 1.95411 59.8372 1.99273 59.4181 2.07685C55.6741 2.75589 52.8261 5.50341 52.7794 11.3466C52.755 14.4512 52.7794 21.3703 52.7794 37.8388H77.6574C78.0414 37.8388 78.46 37.8887 78.5694 37.4919C78.5887 37.4212 78.5917 37.3471 78.5783 37.2751C78.5648 37.2031 78.5352 37.1351 78.4916 37.0762C78.448 37.0173 78.3917 36.9691 78.3268 36.9351C78.2619 36.9011 78.1902 36.8823 78.117 36.88Z" fill="#F3B82E"/>
<path id="vector_8" d="M60.7678 0.98048C59.9755 0.96512 55.8462 0.98048 33.6676 0.98048C30.5316 0.98048 28.2116 0.66048 25.507 2.35456C23.4611 3.64369 22.0108 5.69249 21.475 8.05056C21.1499 9.4944 21.2484 6.36992 21.2484 55.6947H34.9835C35.6235 55.6947 35.9012 55.705 35.8865 56.4301C35.7634 57.7964 35.9048 59.1736 36.3031 60.4864C36.7661 61.8714 37.5923 63.1068 38.6956 64.0637C39.7988 65.0206 41.1386 65.6638 42.5751 65.9264C43.7873 66.1453 44.1182 65.9629 44.3921 66.2093C44.4522 66.2668 44.4961 66.3391 44.5194 66.419C44.5426 66.4989 44.5444 66.5835 44.5246 66.6643C44.5044 66.7451 44.4631 66.819 44.405 66.8786C44.3468 66.9382 44.2739 66.9813 44.1937 67.0035C46.4426 66.8775 48.5667 65.9296 50.1623 64.3398C53.2849 61.1571 52.7761 57.6838 52.7761 54.7891C52.7761 51.5187 52.7313 10.9357 52.7876 9.67872C52.8737 7.78847 53.6182 5.98785 54.8923 4.58884C56.1663 3.18983 57.8896 2.28056 59.7636 2.01856C60.6167 1.90272 61.1383 2.08256 61.3041 1.63072C61.4289 1.40992 61.3067 0.99072 60.7678 0.98048Z" fill="white"/>
<path id="vector_9" d="M44.5024 66.3591C44.2893 65.8797 43.8361 66.2119 42.2624 65.8605C40.7113 65.5136 39.2954 64.7211 38.1886 63.5805C37.0817 62.4399 36.3322 61.0008 36.032 59.4401C35.8818 58.4077 35.8338 57.3631 35.8886 56.3213C35.8521 55.8164 35.6781 55.7101 35.2416 55.7127C31.4297 55.7345 4.97662 55.6922 4.9171 55.6929C4.80288 55.6815 4.6881 55.7081 4.59049 55.7685C4.49287 55.8289 4.41783 55.9197 4.37694 56.0269C4.35006 56.0982 4.33914 56.1744 4.34494 56.2503C4.23614 57.8036 4.40574 59.3645 4.84542 60.8583C5.27177 62.0891 5.95499 63.2152 6.84974 64.1618C7.7445 65.1084 8.83032 65.8539 10.0352 66.3489C11.4122 66.8877 12.89 67.1207 14.3661 67.0317C45.6486 67.0317 44.0531 67.0452 44.2003 67.001C44.2975 66.9729 44.3832 66.9143 44.4447 66.8339C44.5062 66.7535 44.5403 66.6555 44.5421 66.5543C44.5429 66.4871 44.5294 66.4206 44.5024 66.3591Z" fill="#F3B82E"/>
</g>
</g>
<g id="line">
<g id="group_2">
<path id="vector_10" d="M2.72195 21.9873L12.8339 27.6301C13.104 27.7805 13.3459 27.3665 13.0765 27.2154L2.96451 21.5732C2.69635 21.4221 2.45187 21.8401 2.72195 21.9873Z" fill="#303134"/>
<path id="vector_11" d="M0.428676 28.473L12.8197 30.0244C13.1256 30.0628 13.1231 29.5822 12.8197 29.5444L0.428676 27.993C0.122756 27.9546 0.125316 28.4353 0.428676 28.473Z" fill="#303134"/>
<path id="vector_12" d="M12.9754 24.7713C13.1674 25.0138 13.504 24.6721 13.3152 24.4321L9.42527 19.4855C9.23327 19.2423 8.89663 19.5847 9.08543 19.8247L12.9754 24.7713Z" fill="#303134"/>
<path id="vector_13" d="M113.928 48.6318C116.983 47.3351 116.913 42.8167 113.989 41.5739C113.308 41.2847 112.561 41.1832 111.827 41.2799C111.093 41.3766 110.398 41.6679 109.814 42.1236C109.388 42.5057 109.049 42.9751 108.821 43.4999C108.593 44.0248 108.48 44.5926 108.491 45.1649C108.502 45.7371 108.636 46.3002 108.883 46.8162C109.131 47.3321 109.487 47.7887 109.926 48.155C110.497 48.5698 111.165 48.8314 111.865 48.9149C112.566 48.9983 113.276 48.9009 113.928 48.6318ZM112.871 48.4334C112.35 48.5297 111.813 48.4997 111.306 48.3458C110.798 48.1919 110.335 47.9187 109.955 47.5489C109.576 47.1789 109.29 46.7231 109.123 46.22C108.956 45.7169 108.912 45.181 108.995 44.6574C109.065 43.9732 109.35 43.3288 109.808 42.8161C110.267 42.3041 110.876 41.9502 111.548 41.8049C116.424 40.8116 117.215 47.9054 112.87 48.4334H112.871Z" fill="#303134"/>
<path id="vector_14" d="M114.596 44.7117C114.523 44.2767 114.326 43.8719 114.029 43.5459C113.731 43.2199 113.347 42.9865 112.92 42.8737C112.493 42.7608 112.043 42.7736 111.624 42.9104C111.204 43.0472 110.833 43.3022 110.555 43.6448C110.277 43.9875 110.104 44.4031 110.056 44.8418C110.009 45.2805 110.089 45.7236 110.287 46.1178C110.485 46.5121 110.792 46.841 111.173 47.0644C111.553 47.2884 111.99 47.3978 112.43 47.3793C112.758 47.3739 113.08 47.297 113.375 47.1539C113.67 47.0109 113.929 46.8051 114.136 46.5511C114.342 46.2966 114.49 46.0001 114.57 45.6823C114.649 45.3646 114.658 45.0333 114.596 44.7117ZM114.104 45.5649C114.029 45.8342 113.893 46.0827 113.707 46.2915C113.521 46.5003 113.289 46.6639 113.031 46.7697C112.772 46.8755 112.492 46.9208 112.213 46.9021C111.934 46.8834 111.663 46.8012 111.421 46.6618C111.096 46.4758 110.836 46.1951 110.676 45.8573C110.534 45.5162 110.493 45.1419 110.558 44.7783C110.622 44.4147 110.788 44.077 111.038 43.8049C111.321 43.5167 111.692 43.3306 112.092 43.2757C112.493 43.2207 112.9 43.3 113.25 43.5012C113.601 43.7024 113.875 44.014 114.029 44.3874C114.184 44.7608 114.21 45.1749 114.104 45.5649Z" fill="#303134"/>
<path id="vector_15" d="M121.544 42.5319C121.029 40.4507 119.797 38.6172 118.066 37.353C115.412 35.4068 113.186 35.6391 109.908 35.6391H103.849V23.3127C103.873 22.1002 103.654 20.8953 103.204 19.7691C102.754 18.6429 102.083 17.6183 101.231 16.7559C100.379 15.8932 99.3624 15.21 98.2419 14.7468C97.1214 14.2835 95.9195 14.0497 94.707 14.0589H69.9198C69.9198 9.89892 69.9371 9.6506 69.8488 8.95364C69.6907 7.69163 69.2728 6.47607 68.6213 5.38372C67.036 2.73284 64.3147 0.986923 60.2539 0.980523C54.4114 0.969643 33.6677 0.980523 33.6677 0.980523C32.163 0.91825 30.656 0.944748 29.1544 1.05988C27.3111 1.2946 25.5849 2.09157 24.2107 3.34232C22.8365 4.59306 21.8811 6.23684 21.4744 8.04996C21.1544 9.48612 21.2478 6.35013 21.2478 55.6941C21.2478 55.6941 5.324 55.6877 4.91312 55.6941C4.79892 55.6829 4.68419 55.7095 4.58659 55.7699C4.489 55.8303 4.41394 55.921 4.37296 56.0282C4.34605 56.0994 4.33512 56.1757 4.34096 56.2516C4.23234 57.8062 4.40182 59.3677 4.84144 60.8628C5.37951 62.4179 6.32634 63.7996 7.58252 64.8626C8.8387 65.9257 10.3579 66.6309 11.9806 66.9044C13.3093 67.1053 12.1131 67.0362 42.8818 67.0362C45.724 67.0362 48.2206 66.3226 50.165 64.3412C51.6187 62.8569 52.5248 60.9227 52.7346 58.8557C52.8088 58.098 52.7787 60.3322 52.7787 37.84H72.3154C72.3154 45.8029 72.1566 46.5645 72.8216 48.482C73.3311 49.9289 74.1979 51.2237 75.3414 52.2462C76.485 53.2687 77.8683 53.9858 79.363 54.3309C80.2597 54.5031 81.173 54.578 82.0856 54.5536C114.854 54.5665 113.439 54.6861 115.126 54.2298C119.802 52.9632 122.865 48.208 121.544 42.5319ZM109.018 36.1191C106.775 36.9036 104.922 38.5252 103.848 40.6445V36.1191H109.018ZM69.9192 27.4727H78.4523C78.516 27.4727 78.577 27.4474 78.622 27.4024C78.667 27.3574 78.6923 27.2963 78.6923 27.2327C78.6923 27.169 78.667 27.108 78.622 27.063C78.577 27.018 78.516 26.9927 78.4523 26.9927H69.9192V24.1018H78.4523C78.516 24.1018 78.577 24.0765 78.622 24.0315C78.667 23.9865 78.6923 23.9255 78.6923 23.8618C78.6923 23.7981 78.667 23.7371 78.622 23.6921C78.577 23.6471 78.516 23.6218 78.4523 23.6218H69.9192V20.7584H78.4523C78.516 20.7584 78.577 20.7332 78.622 20.6882C78.667 20.6431 78.6923 20.5821 78.6923 20.5184C78.6923 20.4548 78.667 20.3937 78.622 20.3487C78.577 20.3037 78.516 20.2784 78.4523 20.2784H69.9192V14.537H94.4485C89.9422 15.1949 87.4085 18.057 86.7294 21.3056C86.5389 22.5235 86.4745 23.7578 86.5374 24.9888C86.5374 28.6688 86.9214 31.474 84.4421 34.3508C82.3243 36.8064 77.4827 37.8144 73.9461 35.7344C72.7209 35.011 71.7055 33.9806 71.0003 32.7449C70.295 31.5091 69.9241 30.1109 69.9243 28.688C69.923 28.624 69.9192 27.7767 69.9192 27.472V27.4727ZM15.9902 66.5543C14.4414 66.6567 12.8862 66.5671 11.3598 66.2887C9.45014 65.8001 7.76274 64.678 6.57365 63.1059C5.38456 61.5337 4.76416 59.6045 4.81392 57.634C4.81392 57.25 4.8216 56.2119 4.8216 56.2119C4.8216 56.2119 35.2536 56.1575 35.3182 56.1741C35.4136 56.1984 35.3925 56.1741 35.3925 56.29C35.3925 58.3322 35.3342 59.6353 36.1784 61.4912C36.7353 62.697 37.5604 63.7595 38.5906 64.5978C39.6208 65.436 40.8289 66.0277 42.1227 66.3277C42.723 66.4551 43.3342 66.5287 43.948 66.546C43.7016 66.56 45.379 66.5543 15.9902 66.5543ZM52.3845 8.81668C52.2622 9.69348 52.2994 6.80581 52.2994 56.0186C52.3671 57.2483 52.3081 58.4816 52.1234 59.6992C51.9152 60.6934 51.5346 61.6434 50.9989 62.5063C48.835 65.9949 46.0222 66.1703 44.5522 66.1037C41.8962 65.9828 39.7349 65.3997 37.8597 63.2237C37.5764 62.8974 37.3196 62.549 37.0917 62.1818C35.5038 59.6077 35.9742 57.3274 35.8757 56.2996C35.8264 55.7876 35.6549 55.7236 35.3246 55.7095C34.5707 55.6724 31.9038 55.6941 21.7285 55.6941V10.4532C21.7029 9.23204 21.9096 8.01732 22.3384 6.87364C22.7996 5.70345 23.5132 4.64937 24.4284 3.78651C25.3436 2.92365 26.4378 2.27325 27.6331 1.88164C29.4251 1.29732 28.3864 1.45924 60.3672 1.45924C58.3952 1.58582 56.5264 2.38559 55.0734 3.72482C53.6203 5.06404 52.6711 6.86152 52.3845 8.81668ZM52.7794 37.3607C52.7794 8.14532 52.7378 9.84068 52.8536 8.9754C54.083 -0.171479 67.861 -0.584278 69.3394 8.7514C69.4279 9.4517 69.4613 10.1579 69.4392 10.8634C69.4392 30.0909 69.363 29.312 69.6574 30.6202C70.0809 32.363 71.0192 33.938 72.3501 35.1402C73.6811 36.3424 75.3431 37.1161 77.1198 37.3607H52.7794ZM80.4472 54.0154C78.9824 53.8566 77.5831 53.3236 76.3839 52.4678C75.1846 51.6119 74.2256 50.4619 73.5992 49.1284C72.6245 47.0407 72.7973 46.1997 72.7973 37.8407H76.9477C83.324 37.8407 86.7077 33.8157 86.988 29.2301C87.0866 27.7466 86.9707 23.4893 87.0488 22.4781C87.1981 20.5205 88.0586 18.6852 89.468 17.3184C94.332 12.5984 103.196 15.2986 103.366 22.9383C103.417 25.2231 103.224 45.2103 103.406 46.5543C103.685 48.5 104.606 50.2967 106.023 51.6597C107.439 53.0226 109.27 53.8737 111.225 54.0781C79.26 54.0736 81.3624 54.0992 80.4472 54.0135V54.0154ZM113.848 53.6954C108.702 54.1325 103.855 51.2788 103.846 44.386C103.846 41.6557 103.801 41.9437 103.993 41.4656C105.209 38.4448 108.059 36.1101 112.322 36.1223C113.789 36.0583 115.25 36.3629 116.569 37.0093C117.837 37.6449 118.929 38.5838 119.747 39.7427C120.566 40.9016 121.085 42.2446 121.26 43.6525C121.951 48.7796 119.067 53.2487 113.848 53.6922V53.6954Z" fill="#303134"/>
<path id="vector_16" d="M24.4395 50.5511V52.0647C24.4395 52.1285 24.4648 52.1896 24.5098 52.2347C24.5549 52.2797 24.616 52.305 24.6798 52.305C24.7435 52.305 24.8046 52.2797 24.8497 52.2347C24.8948 52.1896 24.9201 52.1285 24.9201 52.0647V50.5511C24.9179 50.5051 24.9025 50.4607 24.8758 50.4232C24.8491 50.3857 24.8121 50.3567 24.7693 50.3396C24.7265 50.3225 24.6797 50.3181 24.6345 50.3269C24.5893 50.3357 24.5476 50.3573 24.5143 50.3892C24.4695 50.4316 24.4427 50.4895 24.4395 50.5511Z" fill="#303134"/>
<path id="vector_17" d="M27.4673 50.551V52.0646C27.4671 52.0962 27.4732 52.1275 27.4852 52.1567C27.4972 52.1859 27.5149 52.2124 27.5372 52.2347C27.5595 52.257 27.5861 52.2747 27.6152 52.2867C27.6444 52.2987 27.6757 52.3048 27.7073 52.3046C27.7389 52.3049 27.7702 52.2989 27.7994 52.2869C27.8287 52.2749 27.8552 52.2572 27.8776 52.2349C27.8999 52.2126 27.9176 52.186 27.9295 52.1568C27.9415 52.1275 27.9475 52.0962 27.9473 52.0646V50.551C27.9473 50.4874 27.922 50.4263 27.877 50.3813C27.832 50.3363 27.7709 50.311 27.7073 50.311C27.6436 50.311 27.5826 50.3363 27.5376 50.3813C27.4926 50.4263 27.4673 50.4874 27.4673 50.551Z" fill="#303134"/>
<path id="vector_18" d="M30.6597 50.551V52.0646C30.6595 52.0962 30.6656 52.1275 30.6776 52.1567C30.6896 52.1859 30.7073 52.2124 30.7296 52.2347C30.7519 52.257 30.7784 52.2747 30.8076 52.2867C30.8368 52.2987 30.8681 52.3048 30.8997 52.3046C30.9313 52.3049 30.9626 52.2989 30.9918 52.2869C31.0211 52.2749 31.0476 52.2572 31.0699 52.2349C31.0923 52.2126 31.11 52.186 31.1219 52.1568C31.1339 52.1275 31.1399 52.0962 31.1397 52.0646V50.551C31.1397 50.4874 31.1144 50.4263 31.0694 50.3813C31.0244 50.3363 30.9633 50.311 30.8997 50.311C30.836 50.311 30.775 50.3363 30.73 50.3813C30.685 50.4263 30.6597 50.4874 30.6597 50.551Z" fill="#303134"/>
<path id="vector_19" d="M33.7598 50.5511V52.0647C33.7598 52.1284 33.7851 52.1896 33.8302 52.2346C33.8752 52.2797 33.9363 52.305 34.0001 52.305C34.0638 52.305 34.1249 52.2797 34.17 52.2346C34.2151 52.1896 34.2404 52.1284 34.2404 52.0647V50.5511C34.2404 50.4874 34.2151 50.4263 34.17 50.3812C34.1249 50.3361 34.0638 50.3108 34.0001 50.3108C33.9363 50.3108 33.8752 50.3361 33.8302 50.3812C33.7851 50.4263 33.7598 50.4874 33.7598 50.5511Z" fill="#303134"/>
<path id="vector_20" d="M36.7734 50.551V52.0646C36.7733 52.0962 36.7794 52.1275 36.7914 52.1567C36.8034 52.1859 36.821 52.2124 36.8434 52.2347C36.8657 52.257 36.8922 52.2747 36.9214 52.2867C36.9506 52.2987 36.9819 52.3048 37.0134 52.3046C37.045 52.3049 37.0764 52.2989 37.1056 52.2869C37.1348 52.2749 37.1614 52.2572 37.1837 52.2349C37.2061 52.2126 37.2237 52.186 37.2357 52.1568C37.2477 52.1275 37.2537 52.0962 37.2534 52.0646V50.551C37.2534 50.4874 37.2282 50.4263 37.1831 50.3813C37.1381 50.3363 37.0771 50.311 37.0134 50.311C36.9498 50.311 36.8887 50.3363 36.8437 50.3813C36.7987 50.4263 36.7734 50.4874 36.7734 50.551Z" fill="#303134"/>
<path id="vector_21" d="M39.8013 50.551V52.0646C39.8011 52.0962 39.8072 52.1275 39.8192 52.1567C39.8312 52.1859 39.8489 52.2124 39.8712 52.2347C39.8935 52.257 39.92 52.2747 39.9492 52.2867C39.9784 52.2987 40.0097 52.3048 40.0413 52.3046C40.0729 52.3049 40.1042 52.2989 40.1334 52.2869C40.1627 52.2749 40.1892 52.2572 40.2116 52.2349C40.2339 52.2126 40.2516 52.186 40.2635 52.1568C40.2755 52.1275 40.2815 52.0962 40.2813 52.0646V50.551C40.2813 50.4874 40.256 50.4263 40.211 50.3813C40.166 50.3363 40.1049 50.311 40.0413 50.311C39.9776 50.311 39.9166 50.3363 39.8716 50.3813C39.8266 50.4263 39.8013 50.4874 39.8013 50.551Z" fill="#303134"/>
<path id="vector_22" d="M42.9937 50.551V52.0646C42.9935 52.0962 42.9996 52.1275 43.0116 52.1567C43.0236 52.1859 43.0413 52.2124 43.0636 52.2347C43.0859 52.257 43.1124 52.2747 43.1416 52.2867C43.1708 52.2987 43.2021 52.3048 43.2337 52.3046C43.2652 52.3048 43.2965 52.2987 43.3257 52.2867C43.3549 52.2747 43.3814 52.257 43.4037 52.2347C43.4261 52.2124 43.4437 52.1859 43.4557 52.1567C43.4677 52.1275 43.4738 52.0962 43.4737 52.0646V50.551C43.4737 50.4874 43.4484 50.4263 43.4034 50.3813C43.3584 50.3363 43.2973 50.311 43.2337 50.311C43.17 50.311 43.109 50.3363 43.064 50.3813C43.0189 50.4263 42.9937 50.4874 42.9937 50.551Z" fill="#303134"/>
<path id="vector_23" d="M46.5738 52.0646V50.551C46.5738 50.4874 46.5485 50.4263 46.5035 50.3813C46.4585 50.3363 46.3974 50.311 46.3338 50.311C46.2701 50.311 46.2091 50.3363 46.164 50.3813C46.119 50.4263 46.0938 50.4874 46.0938 50.551V52.0646C46.0936 52.0962 46.0997 52.1275 46.1117 52.1567C46.1237 52.1859 46.1414 52.2124 46.1637 52.2347C46.186 52.257 46.2125 52.2747 46.2417 52.2867C46.2709 52.2987 46.3022 52.3048 46.3338 52.3046C46.3653 52.3048 46.3966 52.2987 46.4258 52.2867C46.455 52.2747 46.4815 52.257 46.5038 52.2347C46.5262 52.2124 46.5438 52.1859 46.5558 52.1567C46.5678 52.1275 46.5739 52.0962 46.5738 52.0646Z" fill="#303134"/>
<path id="vector_24" d="M49.626 52.0646V50.551C49.626 50.4874 49.6007 50.4263 49.5557 50.3813C49.5107 50.3363 49.4496 50.311 49.386 50.311C49.3223 50.311 49.2613 50.3363 49.2163 50.3813C49.1713 50.4263 49.146 50.4874 49.146 50.551V52.0646C49.146 52.1283 49.1713 52.1893 49.2163 52.2343C49.2613 52.2793 49.3223 52.3046 49.386 52.3046C49.4496 52.3046 49.5107 52.2793 49.5557 52.2343C49.6007 52.1893 49.626 52.1283 49.626 52.0646Z" fill="#303134"/>
<path id="vector_25" d="M24.4395 15.232V16.7463C24.4426 16.8079 24.4693 16.8659 24.5141 16.9083C24.5588 16.9508 24.6181 16.9745 24.6798 16.9745C24.7414 16.9745 24.8008 16.9508 24.8455 16.9083C24.8902 16.8659 24.9169 16.8079 24.9201 16.7463V15.232C24.9169 15.1704 24.8902 15.1124 24.8455 15.0699C24.8008 15.0275 24.7414 15.0038 24.6798 15.0038C24.6181 15.0038 24.5588 15.0275 24.5141 15.0699C24.4693 15.1124 24.4426 15.1704 24.4395 15.232Z" fill="#303134"/>
<path id="vector_26" d="M27.4673 15.2321V16.7463C27.4673 16.81 27.4926 16.871 27.5376 16.916C27.5826 16.961 27.6436 16.9863 27.7073 16.9863C27.7709 16.9863 27.832 16.961 27.877 16.916C27.922 16.871 27.9473 16.81 27.9473 16.7463V15.2321C27.9473 15.1684 27.922 15.1074 27.877 15.0624C27.832 15.0173 27.7709 14.9921 27.7073 14.9921C27.6436 14.9921 27.5826 15.0173 27.5376 15.0624C27.4926 15.1074 27.4673 15.1684 27.4673 15.2321Z" fill="#303134"/>
<path id="vector_27" d="M30.6597 15.2321V16.7463C30.6597 16.81 30.685 16.871 30.73 16.916C30.775 16.961 30.836 16.9863 30.8997 16.9863C30.9633 16.9863 31.0244 16.961 31.0694 16.916C31.1144 16.871 31.1397 16.81 31.1397 16.7463V15.2321C31.1397 15.1684 31.1144 15.1074 31.0694 15.0624C31.0244 15.0173 30.9633 14.9921 30.8997 14.9921C30.836 14.9921 30.775 15.0173 30.73 15.0624C30.685 15.1074 30.6597 15.1684 30.6597 15.2321Z" fill="#303134"/>
<path id="vector_28" d="M33.7598 15.232V16.7463C33.7629 16.8079 33.7897 16.8659 33.8344 16.9083C33.8791 16.9508 33.9384 16.9745 34.0001 16.9745C34.0618 16.9745 34.1211 16.9508 34.1658 16.9083C34.2105 16.8659 34.2372 16.8079 34.2404 16.7463V15.232C34.2372 15.1704 34.2105 15.1124 34.1658 15.0699C34.1211 15.0275 34.0618 15.0038 34.0001 15.0038C33.9384 15.0038 33.8791 15.0275 33.8344 15.0699C33.7897 15.1124 33.7629 15.1704 33.7598 15.232Z" fill="#303134"/>
<path id="vector_29" d="M36.7734 15.2321V16.7463C36.7734 16.81 36.7987 16.871 36.8437 16.916C36.8887 16.961 36.9498 16.9863 37.0134 16.9863C37.0771 16.9863 37.1381 16.961 37.1831 16.916C37.2282 16.871 37.2534 16.81 37.2534 16.7463V15.2321C37.2534 15.1684 37.2282 15.1074 37.1831 15.0624C37.1381 15.0173 37.0771 14.9921 37.0134 14.9921C36.9498 14.9921 36.8887 15.0173 36.8437 15.0624C36.7987 15.1074 36.7734 15.1684 36.7734 15.2321Z" fill="#303134"/>
<path id="vector_30" d="M39.8013 15.2321V16.7463C39.8013 16.81 39.8266 16.871 39.8716 16.916C39.9166 16.961 39.9776 16.9863 40.0413 16.9863C40.1049 16.9863 40.166 16.961 40.211 16.916C40.256 16.871 40.2813 16.81 40.2813 16.7463V15.2321C40.2813 15.1684 40.256 15.1074 40.211 15.0624C40.166 15.0173 40.1049 14.9921 40.0413 14.9921C39.9776 14.9921 39.9166 15.0173 39.8716 15.0624C39.8266 15.1074 39.8013 15.1684 39.8013 15.2321Z" fill="#303134"/>
<path id="vector_31" d="M42.9937 15.2321V16.7463C42.9937 16.81 43.0189 16.871 43.064 16.916C43.109 16.961 43.17 16.9863 43.2337 16.9863C43.2973 16.9863 43.3584 16.961 43.4034 16.916C43.4484 16.871 43.4737 16.81 43.4737 16.7463V15.2321C43.4737 15.1684 43.4484 15.1074 43.4034 15.0624C43.3584 15.0173 43.2973 14.9921 43.2337 14.9921C43.17 14.9921 43.109 15.0173 43.064 15.0624C43.0189 15.1074 42.9937 15.1684 42.9937 15.2321Z" fill="#303134"/>
<path id="vector_32" d="M46.5737 16.7463V15.2321C46.5737 15.1684 46.5485 15.1074 46.5035 15.0624C46.4584 15.0173 46.3974 14.9921 46.3337 14.9921C46.2701 14.9921 46.2091 15.0173 46.164 15.0624C46.119 15.1074 46.0938 15.1684 46.0938 15.2321V16.7463C46.0938 16.81 46.119 16.871 46.164 16.916C46.2091 16.961 46.2701 16.9863 46.3337 16.9863C46.3974 16.9863 46.4584 16.961 46.5035 16.916C46.5485 16.871 46.5737 16.81 46.5737 16.7463Z" fill="#303134"/>
<path id="vector_33" d="M49.626 16.7463V15.232C49.6216 15.1714 49.5944 15.1147 49.5498 15.0733C49.5053 15.0319 49.4468 15.0089 49.386 15.0089C49.3252 15.0089 49.2667 15.0319 49.2222 15.0733C49.1776 15.1147 49.1504 15.1714 49.146 15.232V16.7463C49.1504 16.8069 49.1776 16.8636 49.2222 16.905C49.2667 16.9464 49.3252 16.9694 49.386 16.9694C49.4468 16.9694 49.5053 16.9464 49.5498 16.905C49.5944 16.8636 49.6216 16.8069 49.626 16.7463Z" fill="#303134"/>
<path id="vector_34" d="M43.4034 39.7395L37.1077 33.4438L43.4034 27.1482C43.4458 27.1027 43.4688 27.0425 43.4678 26.9803C43.4667 26.9181 43.4415 26.8588 43.3975 26.8148C43.3535 26.7709 43.2942 26.7457 43.232 26.7446C43.1698 26.7435 43.1097 26.7666 43.0642 26.809L36.7685 33.104L30.4722 26.8083C30.4499 26.786 30.4234 26.7684 30.3942 26.7563C30.3651 26.7443 30.3339 26.7381 30.3023 26.7382C30.2708 26.7382 30.2396 26.7444 30.2105 26.7565C30.1814 26.7686 30.1549 26.7863 30.1327 26.8086C30.1104 26.8309 30.0927 26.8574 30.0807 26.8866C30.0686 26.9157 30.0625 26.9469 30.0625 26.9785C30.0625 27.01 30.0688 27.0412 30.0809 27.0703C30.093 27.0994 30.1107 27.1259 30.133 27.1482L36.4287 33.4438L30.133 39.7395C30.0906 39.785 30.0675 39.8452 30.0686 39.9074C30.0697 39.9695 30.0949 40.0289 30.1389 40.0728C30.1828 40.1168 30.2422 40.142 30.3043 40.1431C30.3665 40.1442 30.4267 40.1211 30.4722 40.0787L36.7685 33.783L43.0642 40.0787C43.1097 40.1211 43.1698 40.1442 43.232 40.1431C43.2942 40.142 43.3535 40.1168 43.3975 40.0728C43.4415 40.0289 43.4667 39.9695 43.4678 39.9074C43.4688 39.8452 43.4458 39.785 43.4034 39.7395Z" fill="#303134"/>
<path id="vector_35" d="M30.3025 11.3562H43.2305C43.2942 11.3562 43.3552 11.3309 43.4002 11.2859C43.4452 11.2409 43.4705 11.1799 43.4705 11.1162C43.4705 11.0526 43.4452 10.9915 43.4002 10.9465C43.3552 10.9015 43.2942 10.8762 43.2305 10.8762H30.3025C30.2388 10.8762 30.1778 10.9015 30.1328 10.9465C30.0878 10.9915 30.0625 11.0526 30.0625 11.1162C30.0625 11.1799 30.0878 11.2409 30.1328 11.2859C30.1778 11.3309 30.2388 11.3562 30.3025 11.3562Z" fill="#303134"/>
<path id="vector_36" d="M30.3025 7.98464H43.2305C43.2942 7.98464 43.3552 7.95935 43.4002 7.91434C43.4452 7.86933 43.4705 7.80829 43.4705 7.74464C43.4705 7.68099 43.4452 7.61994 43.4002 7.57493C43.3552 7.52992 43.2942 7.50464 43.2305 7.50464H30.3025C30.2388 7.50464 30.1778 7.52992 30.1328 7.57493C30.0878 7.61994 30.0625 7.68099 30.0625 7.74464C30.0625 7.80829 30.0878 7.86933 30.1328 7.91434C30.1778 7.95935 30.2388 7.98464 30.3025 7.98464Z" fill="#303134"/>
</g>
</g>
</g>
</svg>
